<svg xmlns="http://www.w3.org/2000/svg" fill="none" viewBox="0 0 218 75">
  <path d="M1.676 2.8c-.56 0-1.12.56-1.12 1.2v12.08c0 .64.56 1.12 1.12 1.12h13.28v39.68c0 .56.56 1.12 1.2 1.12h14.16c.64 0 1.12-.56 1.12-1.12V17.2h11.92c.56 0 1.2-.48 1.28-1.12l1.2-12.16c.08-.56-.4-1.12-1.12-1.12H1.676zm62.9 10.08c-14.08 0-23.52 9.28-23.52 23.2 0 13.84 9.44 23.12 23.52 23.12s23.52-9.28 23.52-23.2c0-13.84-9.44-23.12-23.52-23.12zm0 14.4c4.72 0 7.92 3.52 7.92 8.72 0 5.28-3.2 8.8-7.92 8.8s-7.92-3.52-7.92-8.72c0-5.28 3.2-8.8 7.92-8.8zm50.235-14.4c-14.08 0-23.52 9.28-23.52 23.2 0 13.84 9.44 23.12 23.52 23.12s23.52-9.28 23.52-23.2c0-13.84-9.44-23.12-23.52-23.12zm0 14.4c4.72 0 7.92 3.52 7.92 8.72 0 5.28-3.2 8.8-7.92 8.8s-7.92-3.52-7.92-8.72c0-5.28 3.2-8.8 7.92-8.8zM144.005 0c-.64 0-1.2.56-1.2 1.12V56.8c0 .64.56 1.2 1.2 1.2h14.08c.64 0 1.2-.56 1.2-1.2V1.12c0-.56-.56-1.12-1.2-1.12h-14.08zm50.346 14c-.56 0-1.28.4-1.44 1.12l-6.08 25.12-6.16-25.12c-.24-.64-.8-1.12-1.52-1.12h-16.08c-.64 0-1.04.56-.8 1.12l12.88 39.04c.16.56.64 1.12 1.44 1.12h6.56c-1.12 4.64-3.2 6.48-7.28 6.48-2.32 0-5.2-1.04-7.84-2.88-.32-.24-.72-.08-.96.48l-4.48 9.04c-.08.4 0 .96.4 1.36 2.64 2.56 8.08 4.32 13.6 4.32 10.24 0 16.88-4.08 20.72-16.08l13.68-42.88c.16-.56-.16-1.12-.88-1.12h-15.76z" fill="#3A3A38"/>
</svg>
